<svg xmlns="http://www.w3.org/2000/svg" viewBox="0 0 170 35" width="170" height="35">
    <symbol xmlns="http://www.w3.org/2000/svg" id="vRTsFYmJC_WfFNpQuJNuz" viewBox="0 0 125 25" fill="none">
        <path d="M37.288 5.089v5.914h3.767c2.56 0 3.946-.74 3.946-2.994 0-2.255-1.35-2.92-3.91-2.92h-3.803ZM32.383.8h9.703c2.524 0 4.55.628 6.007 1.885 1.493 1.257 2.24 2.772 2.24 5.249 0 2.44-.747 4.214-2.204 5.47-1.458 1.257-3.661 1.886-6.043 1.886h-4.798v7.91h-4.905V.8ZM73.232 14.693c-.252 2.836-1.329 4.128-3.053 5.816-1.76 1.687-3.878 2.692-6.93 2.692-3.305 0-5.962-.718-7.973-2.908s-3.089-5.061-3.089-8.651c0-3.41 1.006-5.564 3.053-7.826C57.287 1.555 60.052.801 63.464.801c2.693 0 4.776.861 6.608 2.369 1.831 1.544 2.837 3.662 3.016 6.03h-4.704c-.252-1.256-.826-2.333-1.724-3.015-.898-.682-2.011-1.4-3.34-1.4-1.4 0-2.55.395-3.483 1.15-.934.789-1.509 1.65-1.904 2.763-.395 1.22-.502 2.046-.502 3.303 0 2.118.359 3.482 1.436 4.882 1.077 1.4 2.55 2.082 4.381 2.082 2.478 0 4.705-1.616 5.028-4.308h4.956v.036ZM95.33.8l-5.679 10.59 6.48 11.81h-5.715l-4.66-8.885h-.91L80.147 23.2h-5.68l6.518-11.811L75.196.8h5.717L85.1 8.799h.473L89.76.801h5.57ZM112.41 15.598c0-1.26-1.159-2.633-3.077-2.633h-5.031v5.748h5.067c2.136 0 3.041-1.594 3.041-3.115Zm-8.108-6.416h5.357c2.425 0 4.379.186 5.9 1.447 1.484 1.26 2.244 2.559 2.244 5.043 0 2.522-.76 4.377-2.281 5.637-1.52 1.261-3.547 1.892-6.117 1.892h-10.17V.8h16.975v4.302h-11.908v4.08Z" fill="#fff"></path>
        <path d="M23.712.8h-8.665v22.4h8.665V.8Z" fill="#fff"></path>
        <path d="M12.58.8H6.39v22.4h6.19V.8Z" fill="#fff"></path>
        <path d="M4.528.8H.195v22.4h4.333V.8Z" fill="#fff"></path>
    </symbol>
    <use href="#vRTsFYmJC_WfFNpQuJNuz"></use>
</svg>
